<svg xmlns="http://www.w3.org/2000/svg" width="376.906" height="449.978" viewBox="0 0 376.906 449.978"><defs><style>.a{fill:#b8b9be;}</style></defs><g transform="translate(-36.536)"><path class="a" d="M159.082,401.369v-85.16A115.19,115.19,0,0,0,266.628,201.414v-.634a7.493,7.493,0,0,0-7.082-7.479,58.3,58.3,0,0,0-52-72.636,58.315,58.315,0,0,0-111.925,0,58.3,58.3,0,0,0-52,72.636,7.493,7.493,0,0,0-7.08,7.479v.634A115.19,115.19,0,0,0,144.082,316.209v85.16a71,71,0,0,0-55.45,37.611,7.5,7.5,0,0,0,6.634,11H207.9a7.5,7.5,0,0,0,6.634-11A71,71,0,0,0,159.082,401.369Zm87.3-222.576A42.953,42.953,0,0,1,243.9,193.28H162.258a42.954,42.954,0,0,1-1.815-6.767,43.334,43.334,0,0,1,41.368-51.018q.63-.02,1.26-.019A43.362,43.362,0,0,1,246.379,178.793ZM151.585,93.745a43.253,43.253,0,0,1,40.445,27.789,58.417,58.417,0,0,0-40.449,29.851,58.417,58.417,0,0,0-40.449-29.855A43.265,43.265,0,0,1,151.585,93.745ZM100.1,135.476c.419,0,.837.006,1.265.019a43.252,43.252,0,0,1,39.54,57.785H59.266a42.928,42.928,0,0,1-2.482-14.487A43.365,43.365,0,0,1,100.1,135.476Zm-48.33,72.8H251.4a100.049,100.049,0,0,1-199.625,0Zm57.706,226.7a56.148,56.148,0,0,1,84.212,0Z"/><path class="a" d="M408.825,23.076l-54-22.5a7.5,7.5,0,0,0-10.3,5.773L336.213,60H277.82l-9.641-37.708A7.5,7.5,0,0,0,253.646,26L262.337,60H219.653a7.5,7.5,0,0,0-7.47,8.17l3.939,43.92a7.5,7.5,0,1,0,14.94-1.34l-.78-8.7H371.008l-4.578,50.948H272.245a7.5,7.5,0,0,0,0,15h92.837l-1.617,18h-83.22a7.5,7.5,0,0,0,0,15h81.873l-3.563,39.651H270.912a7.5,7.5,0,0,0,0,15h86.295L354.3,287.984H246.26a7.5,7.5,0,0,0-14.07,4.308l1.076,10.591a67.612,67.612,0,0,0,59.877,61.17v46.424a54.182,54.182,0,0,0-40.672,28.5,7.5,7.5,0,0,0,6.634,11h82.807a7.5,7.5,0,0,0,6.634-11,54.185,54.185,0,0,0-40.4-28.464V364.053a67.615,67.615,0,0,0,59.878-61.164l21.09-234.723A7.5,7.5,0,0,0,381.642,60H351.391l6.5-41.893,45.167,18.82a7.5,7.5,0,0,0,5.77-13.846ZM333.886,75l-1.869,12.051H284.735L281.654,75ZM227.855,75h38.316l3.081,12.051H228.935Zm46.46,359.982a39.309,39.309,0,0,1,52.388,0Zm26.329-85.492a52.379,52.379,0,0,1-52.273-46.5H352.919A52.363,52.363,0,0,1,300.644,349.486ZM373.438,75l-1.083,12.051H347.2L349.065,75Z"/></g></svg>