<svg xmlns="http://www.w3.org/2000/svg" xmlns:xlink="http://www.w3.org/1999/xlink" width="123.109" height="154.851" viewBox="0 0 123.109 154.851"><defs><style>.a,.g{fill:none;}.a{clip-rule:evenodd;}.b{fill:#b8b9be;}.b,.c,.f,.g{fill-rule:evenodd;}.c,.d,.f,.h,.l{fill:#eaeaeb;}.c,.d,.f{stroke:#eaeaeb;}.c,.f,.g{stroke-linecap:round;stroke-linejoin:round;}.c{stroke-width:0.62px;}.e{clip-path:url(#a);}.f,.g{stroke-width:0.463px;}.g{stroke:#212123;}.i{clip-path:url(#b);}.j{clip-path:url(#c);}.k,.l{stroke:none;}</style><clipPath id="a"><path class="a" d="M349.439,95.624c-.379-3.407-.759-9.163-1.161-13.662h-18.8c-.122,1.378-.309,2.888-.379,4.4-.683,14.943-2.205,29.62-10.371,42.813-4.578,7.4-5.523,15.782-5.483,24.377.11,23.865.039,47.731.053,71.6a32.039,32.039,0,0,0,.208,4.017c.523,4.121,2.536,6.364,6.605,6.417q18.747.232,37.5.008c4.034-.044,6.169-2.314,6.726-6.354a27.145,27.145,0,0,0,.136-3.712c.007-23.555-.187-47.113.1-70.667.122-9.974-1.581-19.277-6.558-27.941C352.447,117.233,350.334,103.688,349.439,95.624Z"/></clipPath><clipPath id="b"><path class="a" d="M338.78,91.6c-.267-2.4-.535-6.465-.819-9.639H324.695c-.086.972-.218,2.038-.267,3.107-.482,10.543-1.556,20.9-7.317,30.206-3.23,5.218-3.9,11.135-3.868,17.2.078,16.837.028,33.676.037,50.515a22.6,22.6,0,0,0,.147,2.834c.369,2.908,1.789,4.49,4.66,4.527q13.227.164,26.459.006c2.846-.031,4.352-1.633,4.745-4.483a19.153,19.153,0,0,0,.1-2.619c0-16.619-.132-33.24.069-49.858.086-7.037-1.115-13.6-4.627-19.713C340.9,106.847,339.411,97.29,338.78,91.6Z" transform="translate(-313.241 -81.962)"/></clipPath><clipPath id="c"><path class="a" d="M326.01,86.781c-.134-1.2-.268-3.232-.41-4.819h-6.633c-.043.486-.109,1.019-.134,1.554-.241,5.271-.778,10.449-3.659,15.1-1.615,2.609-1.948,5.567-1.934,8.6.039,8.419.014,16.838.019,25.257a11.3,11.3,0,0,0,.073,1.417c.184,1.454.895,2.245,2.33,2.264q6.613.082,13.229,0a2.252,2.252,0,0,0,2.373-2.241,9.579,9.579,0,0,0,.048-1.309c0-8.309-.066-16.62.035-24.929a18.751,18.751,0,0,0-2.313-9.857C327.071,94.4,326.326,89.626,326.01,86.781Z" transform="translate(-313.241 -81.962)"/></clipPath></defs><g transform="translate(-228.241 -250.851)"><g transform="translate(-85 170)"><path class="b" d="M349.439,95.624c-.379-3.407-.759-9.163-1.161-13.662h-18.8c-.122,1.378-.309,2.888-.379,4.4-.683,14.943-2.205,29.62-10.371,42.813-4.578,7.4-5.523,15.782-5.483,24.377.11,23.865.039,47.731.053,71.6a32.039,32.039,0,0,0,.208,4.017c.523,4.121,2.536,6.364,6.605,6.417q18.747.232,37.5.008c4.034-.044,6.169-2.314,6.726-6.354a27.145,27.145,0,0,0,.136-3.712c.007-23.555-.187-47.113.1-70.667.122-9.974-1.581-19.277-6.558-27.941C352.447,117.233,350.334,103.688,349.439,95.624Z"/><path class="c" d="M320.283,142.727v81.657"/><path class="d" d="M360.351,222.316c-.429-15.566-.084-31.176-.165-46.748-.042-8.356-.072-16.716-.331-25.069-.253-8.136-2.338-16.321-8.275-22.323-.752-.759-1.439-.151-2.021.4-.624.6-1.387,1.233-.771,2.067,3,4.066,2.638,9.3,2.843,14.117.123,2.894.179,5.793.245,8.688.222,9.6.378,19.2.531,28.806q.219,13.65.4,27.3c.03,2.251.067,4.5.082,6.753.026,4.264.442,8.578,5.813,7.822C359.11,224.076,360.368,222.969,360.351,222.316Z"/><path class="f" d="M352.531,229.759a6.146,6.146,0,0,0,4.135-2.067"/><path class="g" d="M345.709,94.147"/><g class="h" transform="matrix(1, 0.017, -0.017, 1, 329.019, 80.843)"><path class="k" d="M 9.499997138977051 1.500004887580872 C 6.929460525512695 1.500004887580872 4.704018592834473 1.282586574554443 3.119935274124146 1.064881801605225 C 4.72685432434082 0.7880797386169434 6.979265213012695 0.505662202835083 9.501117706298828 0.5000048279762268 C 9.593097686767578 0.4997948408126831 9.685547828674316 0.49969482421875 9.777237892150879 0.49969482421875 C 13.77495861053467 0.49969482421875 16.49067497253418 0.683890700340271 17.86968803405762 0.8834702372550964 C 17.39505195617676 0.9804701805114746 16.73103141784668 1.086406111717224 15.8297176361084 1.1855548620224 C 13.98636722564697 1.38833487033844 11.73843765258789 1.500004887580872 9.499997138977051 1.500004887580872 Z"/><path class="l" d="M 9.777236938476563 -0.0003066062927246094 C 14.74666404724121 -0.0003066062927246094 19.26174736022949 0.3005101680755615 19.26174736022949 0.8427548408508301 C 19.26174736022949 1.395034909248352 14.74670791625977 2.000005006790161 9.499997138977051 2.000005006790161 C 4.253297805786133 2.000005006790161 0.4753475189208984 1.115084886550903 0.4753475189208984 1.115084886550903 C 0.4753475189208984 1.115084886550903 4.422807693481445 0.01139485836029053 9.499997138977051 4.887580871582031e-06 C 9.592343330383301 -0.0002024173736572266 9.685176849365234 -0.0003066062927246094 9.777236938476563 -0.0003066062927246094 Z"/></g></g><g transform="translate(-25 215.599)"><g transform="translate(313.241 81.635)"><path class="b" d="M338.78,91.6c-.267-2.4-.535-6.465-.819-9.639H324.695c-.086.972-.218,2.038-.267,3.107-.482,10.543-1.556,20.9-7.317,30.206-3.23,5.218-3.9,11.135-3.868,17.2.078,16.837.028,33.676.037,50.515a22.6,22.6,0,0,0,.147,2.834c.369,2.908,1.789,4.49,4.66,4.527q13.227.164,26.459.006c2.846-.031,4.352-1.633,4.745-4.483a19.153,19.153,0,0,0,.1-2.619c0-16.619-.132-33.24.069-49.858.086-7.037-1.115-13.6-4.627-19.713C340.9,106.847,339.411,97.29,338.78,91.6Z" transform="translate(-313.241 -81.962)"/><path class="c" d="M320.283,142.727v57.612" transform="translate(-315.315 -99.855)"/><path class="d" d="M356.879,194.49c-.3-10.982-.059-22-.116-32.982-.03-5.9-.051-11.794-.234-17.687-.179-5.74-1.65-11.515-5.838-15.75-.531-.535-1.015-.107-1.426.286-.44.42-.979.87-.544,1.458,2.116,2.869,1.861,6.562,2.006,9.96.087,2.042.126,4.087.173,6.13.157,6.774.267,13.549.375,20.324q.154,9.63.285,19.26c.021,1.588.047,3.176.058,4.764.018,3.008.312,6.052,4.1,5.519C356,195.732,356.891,194.951,356.879,194.49Z" transform="translate(-323.641 -95.466)"/><path class="f" d="M352.531,229.15a4.336,4.336,0,0,0,2.917-1.458" transform="translate(-324.811 -124.875)"/><path class="g" d="M345.709,94.147" transform="translate(-322.802 -85.55)"/></g><g class="h" transform="matrix(1, 0.017, -0.017, 1, 324.708, 80.851)"><path class="k" d="M 6.367177486419678 0.911282479763031 C 5.082901000976563 0.911282479763031 3.921164989471436 0.8339980840682983 2.957345247268677 0.7344017028808594 C 3.932956218719482 0.605349063873291 5.102333068847656 0.5030608177185059 6.368297100067139 0.5002224445343018 L 6.562707424163818 0.5000024437904358 C 8.537787437438965 0.5000024437904358 10.07276725769043 0.5643212795257568 11.14291667938232 0.6504813432693481 C 9.991765975952148 0.7931467890739441 8.342287063598633 0.911282479763031 6.367177486419678 0.911282479763031 Z"/><path class="l" d="M 6.562708377838135 2.86102294921875e-06 C 10.06878852844238 2.86102294921875e-06 13.25439739227295 0.2122396230697632 13.25439739227295 0.5948024392127991 C 13.25439739227295 0.9844624996185303 10.06888771057129 1.411282420158386 6.367177486419678 1.411282420158386 C 2.665467262268066 1.411282420158386 -2.86102294921875e-06 0.7869524359703064 -2.86102294921875e-06 0.7869524359703064 C -2.86102294921875e-06 0.7869524359703064 2.785057067871094 0.008252501487731934 6.367177486419678 0.0002224445343017578 C 6.43233060836792 7.617473602294922e-05 6.497756481170654 2.86102294921875e-06 6.562708377838135 2.86102294921875e-06 Z"/></g></g><g transform="translate(20 270.225)"><g transform="translate(313.241 81.243)"><path class="b" d="M326.01,86.781c-.134-1.2-.268-3.232-.41-4.819h-6.633c-.043.486-.109,1.019-.134,1.554-.241,5.271-.778,10.449-3.659,15.1-1.615,2.609-1.948,5.567-1.934,8.6.039,8.419.014,16.838.019,25.257a11.3,11.3,0,0,0,.073,1.417c.184,1.454.895,2.245,2.33,2.264q6.613.082,13.229,0a2.252,2.252,0,0,0,2.373-2.241,9.579,9.579,0,0,0,.048-1.309c0-8.309-.066-16.62.035-24.929a18.751,18.751,0,0,0-2.313-9.857C327.071,94.4,326.326,89.626,326.01,86.781Z" transform="translate(-313.241 -81.962)"/><path class="c" d="M320.283,142.727v28.806" transform="translate(-317.799 -121.291)"/><path class="d" d="M352.72,161.155c-.151-5.491-.03-11-.058-16.491-.015-2.948-.025-5.9-.117-8.843a11.379,11.379,0,0,0-2.919-7.875c-.265-.268-.508-.053-.713.143s-.489.435-.272.729c1.058,1.434.931,3.281,1,4.98.043,1.021.063,2.044.086,3.065.078,3.387.133,6.775.187,10.162q.077,4.815.143,9.63c.011.794.024,1.588.029,2.382.009,1.5.156,3.026,2.051,2.759C352.282,161.776,352.726,161.385,352.72,161.155Z" transform="translate(-336.101 -111.643)"/><path class="f" d="M352.531,228.421a2.168,2.168,0,0,0,1.459-.729" transform="translate(-338.671 -176.283)"/><path class="g" d="M345.709,94.147" transform="translate(-334.255 -89.849)"/></g><g class="h" transform="matrix(1, 0.017, -0.017, 1, 318.974, 80.851)"><path class="k" d="M3.184,0C4.975,0,6.627.1,6.627.3S5.034.706,3.184.706A15.411,15.411,0,0,1,0,.393,13.214,13.214,0,0,1,3.184,0Z"/><path class="l" d="M 3.281124114990234 -3.039836883544922e-06 C 5.034297943115234 -3.039836883544922e-06 6.627198696136475 0.1061080098152161 6.627198696136475 0.2974062263965607 C 6.627198696136475 0.492226243019104 5.034448623657227 0.705636203289032 3.183588743209839 0.705636203289032 C 1.332728862762451 0.705636203289032 -1.430511474609375e-06 0.3934762179851532 -1.430511474609375e-06 0.3934762179851532 C -1.430511474609375e-06 0.3934762179851532 1.392528533935547 0.004126250743865967 3.183588743209839 0.0001062154769897461 C 3.216055870056152 3.355741500854492e-05 3.248756885528564 -3.039836883544922e-06 3.281124114990234 -3.039836883544922e-06 Z"/></g></g></g></svg>