<svg xmlns="http://www.w3.org/2000/svg" width="80.934" height="65.333" viewBox="0 0 80.934 65.333"><defs><style>.a{fill:#e9e9ea;}.b,.c{fill:#b8b9be;}.b{stroke:#b8b9be;}</style></defs><g transform="translate(-350.553 -328.107)"><path class="a" d="M426.477,363.683h-70.7a3.929,3.929,0,0,0-3.929,3.928h0a3.929,3.929,0,0,0,3.929,3.929h70.7a3.929,3.929,0,0,0,3.929-3.929h0A3.929,3.929,0,0,0,426.477,363.683Z"/><g transform="translate(-1 18)"><path class="b" d="M391.126,341.545H353.954a2.141,2.141,0,0,1-1.87-2.6c1.065-7.449,6.915-28.338,39.042-28.338,32.028,0,38.551,20.76,39.862,28.268a2.15,2.15,0,0,1-1.859,2.67Z"/></g><path class="c" d="M362.1,387.547a2.5,2.5,0,0,1-2.5-2.5V369.612a2.5,2.5,0,0,1,5,0v15.435A2.5,2.5,0,0,1,362.1,387.547Z"/><path class="b" d="M428.069,375.87H374.222v2.111c0,2.481.669,6.551-4.5,6.551a4.478,4.478,0,0,1-3.125-1.273v1.788a4.5,4.5,0,0,1-9,0V375.87h-2.042a2.927,2.927,0,0,0-2.918,2.918v8.446a5.723,5.723,0,0,0,5.707,5.706h67.427a5.232,5.232,0,0,0,5.216-5.216v-8.936A2.926,2.926,0,0,0,428.069,375.87Z"/><path class="c" d="M369.722,382.532a2.5,2.5,0,0,1-2.5-2.5v-10.42a2.5,2.5,0,0,1,5,0v10.42A2.5,2.5,0,0,1,369.722,382.532Z"/></g></svg>